# xmcd
#
# Track frame offsets:
#	150
#	15089
#	31699
#	46560
#	62669
#	83395
#	100131
#	117629
#	142897
#
# Disc length: 2400 seconds
#
# Revision: 1
# Processed by: cddbd v1.5.2PL0 Copyright (c) Steve Scherf et al.
# Submitted via: audiograbber 1.83.01
#
DISCID=58095e09
DTITLE=Compilation - CB-60472
DYEAR=2011
DGENRE=Country
TTITLE0=Lady Antebellum - We Owned The Night
TTITLE1=Justin Moore - Bait A Hook
TTITLE2=Glen Templeton - I Could Be The One
TTITLE3=Craig Mrogan - This Ole Boy
TTITLE4=Blake Shelton - Kiss My Country Ass
TTITLE5=Rodney Atkins - Take a Back Road
TTITLE6=Luke Bryan - I Don't Want This Night To End
TTITLE7=Colt Ford feat. Dallas Davidson - Country Thang
TTITLE8=Misc - Data Track
EXTD=
EXTT0=
EXTT1=
EXTT2=
EXTT3=
EXTT4=
EXTT5=
EXTT6=
EXTT7=
EXTT8=
PLAYORDER=
